<?xml version="1.0" encoding="UTF-8"?>
<svg id="Layer_1" xmlns="http://www.w3.org/2000/svg" version="1.1" viewBox="0 0 110 135">
  <!-- Generator: Adobe Illustrator 30.1.0, SVG Export Plug-In . SVG Version: 2.1.1 Build 136)  -->
  <defs>
    <style>
      .st0 {
        fill: #fff;
      }
    </style>
  </defs>
  <path class="st0" d="M39.9,71c0,1.1.8,2.1,1.9,2.4,19.4,5.4,23.2,9.1,28.5,28.5.3,1.1,1.3,1.9,2.4,1.9s2.1-.8,2.4-1.9c5.4-19.4,9.1-23.2,28.5-28.5,1.1-.3,1.9-1.3,1.9-2.4s-.8-2.1-1.9-2.4c-19.4-5.4-23.2-9.1-28.5-28.5-.3-1.1-1.3-1.9-2.4-1.9s-2.1.8-2.4,1.9c-5.4,19.4-9.1,23.2-28.5,28.5-1.1.3-1.9,1.3-1.9,2.4ZM72.7,49.3c4.3,12.3,9.4,17.4,21.7,21.7-12.3,4.3-17.4,9.4-21.7,21.7-4.3-12.3-9.4-17.4-21.7-21.7,12.3-4.3,17.4-9.4,21.7-21.7Z"/>
  <path class="st0" d="M15.7,40.9c11.8,3.3,13.9,5.4,17.2,17.2.3,1.1,1.3,1.9,2.4,1.9s2.1-.8,2.4-1.9c3.3-11.8,5.4-13.9,17.2-17.2,1.1-.3,1.9-1.3,1.9-2.4s-.8-2.1-1.9-2.4c-11.8-3.3-13.9-5.4-17.2-17.2-.3-1.1-1.3-1.9-2.4-1.9s-2.1.8-2.4,1.9c-3.3,11.8-5.4,13.9-17.2,17.2-1.1.3-1.9,1.3-1.9,2.4s.8,2.1,1.9,2.4ZM35.3,27.5c2.4,5.6,5.3,8.6,10.9,10.9-5.6,2.4-8.6,5.3-10.9,10.9-2.4-5.6-5.3-8.6-10.9-10.9,5.6-2.4,8.6-5.3,10.9-10.9Z"/>
  <path class="st0" d="M6.3,97.7c12.6,3.5,15,5.9,18.4,18.4.3,1.1,1.3,1.9,2.4,1.9s2.1-.8,2.4-1.9c3.5-12.6,5.9-15,18.4-18.4,1.1-.3,1.9-1.3,1.9-2.4s-.8-2.1-1.9-2.4c-12.6-3.5-15-5.9-18.4-18.4-.3-1.1-1.3-1.9-2.4-1.9s-2.1.8-2.4,1.9c-3.5,12.6-5.9,15-18.4,18.4-1.1.3-1.9,1.3-1.9,2.4s.8,2.1,1.9,2.4ZM27.2,83.2c2.6,6.3,5.8,9.5,12.1,12.1-6.3,2.6-9.5,5.8-12.1,12.1-2.6-6.3-5.8-9.5-12.1-12.1,6.3-2.6,9.5-5.8,12.1-12.1Z"/>
</svg>